<svg width="30" height="30" viewBox="0 0 30 30" fill="none" xmlns="http://www.w3.org/2000/svg">
<path d="M22.5002 7.5C21.7377 7.5 21.0377 7.0625 20.6877 6.3875L19.7877 4.575C19.2127 3.4375 17.7127 2.5 16.4377 2.5H13.5752C12.2877 2.5 10.7877 3.4375 10.2127 4.575L9.31271 6.3875C8.96271 7.0625 8.26271 7.5 7.50021 7.5C4.78771 7.5 2.63771 9.7875 2.81271 12.4875L3.46271 22.8125C3.61271 25.3875 5.00021 27.5 8.45021 27.5H21.5502C25.0002 27.5 26.3752 25.3875 26.5377 22.8125L27.1877 12.4875C27.3627 9.7875 25.2127 7.5 22.5002 7.5ZM13.1252 9.0625H16.8752C17.3877 9.0625 17.8127 9.4875 17.8127 10C17.8127 10.5125 17.3877 10.9375 16.8752 10.9375H13.1252C12.6127 10.9375 12.1877 10.5125 12.1877 10C12.1877 9.4875 12.6127 9.0625 13.1252 9.0625ZM15.0002 22.65C12.6752 22.65 10.7752 20.7625 10.7752 18.425C10.7752 16.0875 12.6627 14.2 15.0002 14.2C17.3377 14.2 19.2252 16.0875 19.2252 18.425C19.2252 20.7625 17.3252 22.65 15.0002 22.65Z" fill="#E9EFC0"/>
</svg>
