<svg width="20" height="21" viewBox="0 0 20 21" fill="none" xmlns="http://www.w3.org/2000/svg">
<path d="M9.99984 2.16669C5.40817 2.16669 1.6665 5.90835 1.6665 10.5C1.6665 15.0917 5.40817 18.8334 9.99984 18.8334C14.5915 18.8334 18.3332 15.0917 18.3332 10.5C18.3332 5.90835 14.5915 2.16669 9.99984 2.16669ZM13.9832 8.58335L9.25817 13.3084C9.1415 13.425 8.98317 13.4917 8.8165 13.4917C8.64984 13.4917 8.4915 13.425 8.37484 13.3084L6.0165 10.95C5.77484 10.7084 5.77484 10.3084 6.0165 10.0667C6.25817 9.82502 6.65817 9.82502 6.89984 10.0667L8.8165 11.9834L13.0998 7.70002C13.3415 7.45835 13.7415 7.45835 13.9832 7.70002C14.2248 7.94169 14.2248 8.33335 13.9832 8.58335Z" fill="#00E604"/>
</svg>
