<svg width="20" height="21" viewBox="0 0 20 21" fill="none" xmlns="http://www.w3.org/2000/svg">
<path d="M9.99984 2.16669C5.40817 2.16669 1.6665 5.90835 1.6665 10.5C1.6665 15.0917 5.40817 18.8334 9.99984 18.8334C14.5915 18.8334 18.3332 15.0917 18.3332 10.5C18.3332 5.90835 14.5915 2.16669 9.99984 2.16669ZM12.7998 12.4167C13.0415 12.6584 13.0415 13.0584 12.7998 13.3C12.6748 13.425 12.5165 13.4834 12.3582 13.4834C12.1998 13.4834 12.0415 13.425 11.9165 13.3L9.99984 11.3834L8.08317 13.3C7.95817 13.425 7.79984 13.4834 7.6415 13.4834C7.48317 13.4834 7.32484 13.425 7.19984 13.3C6.95817 13.0584 6.95817 12.6584 7.19984 12.4167L9.1165 10.5L7.19984 8.58335C6.95817 8.34169 6.95817 7.94169 7.19984 7.70002C7.4415 7.45835 7.8415 7.45835 8.08317 7.70002L9.99984 9.61669L11.9165 7.70002C12.1582 7.45835 12.5582 7.45835 12.7998 7.70002C13.0415 7.94169 13.0415 8.34169 12.7998 8.58335L10.8832 10.5L12.7998 12.4167Z" fill="#E03D3D"/>
</svg>
